<svg xmlns="http://www.w3.org/2000/svg" xmlns:xlink="http://www.w3.org/1999/xlink" version="1.1" id="Layer_1" x="0px" y="0px" viewBox="0 0 100 100" enable-background="new 0 0 100 100" xml:space="preserve" height="100px" width="100px">
<path d="M63.8,23.2c-4.5-1.6-9.3-1.6-13.8,0c0-1.1-0.9-1.9-2-1.9h-0.3v-0.9h2.5c1.1,0,2-0.9,2-2V13c0-1.1-0.9-2-2-2h-16  c-1.1,0-2,0.9-2,2v5.3c0,1.1,0.9,2,2,2h2.5v0.9H36c-1.1,0-2,0.9-2,2v22.4c0,1.1,0.9,2,2,2h0.7v2.6c0,1.1,0.9,2,2,2h7  c1.1,0,2-0.9,2-2v-2.6H48c1.1,0,2-0.9,2-2V34.1c2.5-1.1,5.2-1.2,7.9-0.2c3.6,1.3,6.6,4.2,8,7.9c1.3,3.4,0.6,8.4-1.8,12.8  c-2.1,3.8-5,6.4-7.9,7H23c-1.1,0-2,0.9-2,2v5.2c0,1.1,0.9,2,2,2h7.3c2.1,2.4,3,4.7,2.7,6.9c-0.7,4.6-6.5,7.6-6.5,7.6  c-0.8,0.4-1.2,1.4-1,2.2c0.2,0.9,1,1.5,1.9,1.5h15.5c1.1,0,2-0.9,2-2v-6.7c0-0.7,0.6-1.3,1.3-1.3h13.2c0.7,0,1.3,0.6,1.3,1.3V87  c0,1.1,0.9,2,2,2H71c0.5,0,1.1-0.2,1.4-0.6c0.4-0.4,0.6-0.9,0.6-1.5c0-0.1-0.2-5.7,0.2-12.9c0.1-2.1,1-5.3,2.1-9.1  c2.4-8.6,5.8-20.3,1.9-29C74.4,29.8,69.7,25.2,63.8,23.2z M38,43.6V25.2h0.7h7H46v18.4h-0.3h-7H38z M36.2,15h12v1.3h-2.5h-7h-2.5V15  z M40.7,20.3h3v0.9h-3V20.3z M43.7,48.2h-3v-0.6h3V48.2z M25,65.5h31.5c0,0,0,0,0,0c0,0,0,0,0,0h4.2v1.2H25V65.5z M71.4,63.9  c-1.1,4-2.1,7.4-2.2,10C69,78.7,69,82.7,69,85h-4.3v-4.7c0-2.9-2.4-5.3-5.3-5.3H46.2c-2.9,0-5.3,2.4-5.3,5.3V85h-7.6  c1.7-1.7,3.2-4,3.7-6.7c0.4-2.5-0.2-5.1-1.6-7.5h27.4c1.1,0,2-0.9,2-2v-5.2c0-0.8-0.4-1.4-1.1-1.8c1.5-1.4,2.9-3.2,4-5.3  c3-5.4,3.8-11.6,2.1-16.1c-1.8-4.7-5.7-8.5-10.4-10.2C56.2,29,53,28.9,50,29.8v-2.3c4-1.7,8.4-1.9,12.4-0.5  c4.8,1.7,8.8,5.5,11.1,10.7C76.8,45,73.8,55.5,71.4,63.9z"/>
</svg>
